<?xml version="1.0" encoding="UTF-8" standalone="no"?>
<!-- Created with Inkscape (http://www.inkscape.org/) -->

<svg
   width="19.216192mm"
   height="19.215437mm"
   viewBox="0 0 19.216192 19.215437"
   version="1.1"
   id="svg1"
   inkscape:version="1.3.2 (091e20ef0f, 2023-11-25, custom)"
   sodipodi:docname="favicon.svg"
   xmlns:inkscape="http://www.inkscape.org/namespaces/inkscape"
   xmlns:sodipodi="http://sodipodi.sourceforge.net/DTD/sodipodi-0.dtd"
   xmlns="http://www.w3.org/2000/svg"
   xmlns:svg="http://www.w3.org/2000/svg">
  <sodipodi:namedview
     id="namedview1"
     pagecolor="#ffffff"
     bordercolor="#000000"
     borderopacity="0.25"
     inkscape:showpageshadow="2"
     inkscape:pageopacity="0.0"
     inkscape:pagecheckerboard="0"
     inkscape:deskcolor="#d1d1d1"
     inkscape:document-units="mm"
     inkscape:zoom="2.8436027"
     inkscape:cx="9.3191641"
     inkscape:cy="-49.936653"
     inkscape:window-width="1920"
     inkscape:window-height="1011"
     inkscape:window-x="0"
     inkscape:window-y="0"
     inkscape:window-maximized="1"
     inkscape:current-layer="layer1" />
  <defs
     id="defs1" />
  <g
     inkscape:label="Layer 1"
     inkscape:groupmode="layer"
     id="layer1"
     transform="translate(-110.84417,-93.344279)">
    <rect
       style="fill:#000000;stroke:#000000;stroke-width:0.00842617"
       id="rect1"
       width="19.207409"
       height="19.206648"
       x="110.85295"
       y="93.353065" />
    <path
       id="path3"
       d="m 465.43813,700.49021 c 4.70796,10.09206 5.04603,17.89901 0.95787,21.98717 -1.89696,1.89695 -4.58275,2.83604 -7.93216,2.83604 -3.88156,0 -8.63961,-1.27089 -14.05501,-3.79391 -5.00221,-2.3352 -10.31119,-5.60948 -15.65146,-9.61626 -5.34028,4.00678 -10.64926,7.2748 -15.65147,9.61626 -5.4154,2.52302 -10.17971,3.79391 -14.05501,3.79391 -3.34941,0 -6.0352,-0.94535 -7.93216,-2.83604 -4.09442,-4.09443 -3.75009,-11.89511 0.95787,-21.98717 2.3352,-5.00221 5.60949,-10.31118 9.61626,-15.65146 -4.00677,-5.34028 -7.2748,-10.64925 -9.61626,-15.65147 -4.70796,-10.09206 -5.04603,-17.89901 -0.95787,-21.98716 4.08817,-4.08817 11.89511,-3.7501 21.98717,0.95787 5.00221,2.33519 10.31119,5.60948 15.65147,9.61625 5.34027,-4.00677 10.64925,-7.2748 15.65146,-9.61625 10.09206,-4.70797 17.89901,-5.04604 21.98717,-0.95787 1.89695,1.89695 2.8423,4.58274 2.8423,7.93841 0,3.87531 -1.2709,8.63335 -3.81269,14.04875 -2.3352,5.00222 -5.60949,10.31119 -9.61626,15.65147 4.0193,5.34028 7.29358,10.64925 9.62878,15.65146 z m 11.02488,-70.31889 h -95.42382 c -3.83774,0.006 -6.94298,3.11152 -6.94925,6.94925 v 95.43009 c 0.006,3.83774 3.11151,6.94298 6.94925,6.94925 h 95.43009 c 3.83774,-0.006 6.94298,-3.11151 6.94925,-6.94925 v -95.42382 c -0.006,-3.83774 -3.11777,-6.94925 -6.95552,-6.95552"
       style="fill:#100f0d;fill-opacity:1;fill-rule:nonzero;stroke:none;stroke-width:0.00626057" />
    <path
       id="path4"
       d="m 462.29531,667.71605 c -2.41658,5.02725 -5.31523,9.81033 -8.66464,14.27413 -3.24299,-4.06938 -6.71135,-7.94468 -10.39257,-11.62591 -3.67497,-3.68122 -7.55653,-7.14958 -11.62591,-10.39256 4.4638,-3.34315 9.24688,-6.24807 14.27414,-8.66465 4.96464,-2.31642 9.26566,-3.48715 12.58377,-3.48715 2.38528,0 4.26346,0.61354 5.49053,1.84061 2.92369,2.92996 2.32268,9.51609 -1.66532,18.05553"
       style="fill:#100f0d;fill-opacity:1;fill-rule:nonzero;stroke:none;stroke-width:0.00626057" />
    <path
       id="path5"
       d="m 425.90254,709.71205 c -4.4638,3.34315 -9.24689,6.24806 -14.27413,8.66465 -8.5457,3.99425 -15.1381,4.589 -18.07431,1.64653 -2.94247,-2.94248 -2.34146,-9.52861 1.64653,-18.0743 2.41659,-5.02725 5.31524,-9.81034 8.66465,-14.27414 3.24298,4.06938 6.71135,7.94468 10.39257,11.62591 3.68749,3.68748 7.57531,7.16211 11.64469,10.41135"
       style="fill:#100f0d;fill-opacity:1;fill-rule:nonzero;stroke:none;stroke-width:0.00626057" />
    <path
       id="path6"
       d="m 463.94185,720.02949 c -2.94248,2.94248 -9.52861,2.34146 -18.07431,-1.64654 -5.02725,-2.41658 -9.81033,-5.31523 -14.27413,-8.66464 4.06938,-3.24298 7.94468,-6.71135 11.62591,-10.39257 3.68122,-3.67497 7.14958,-7.55653 10.39256,-11.62591 3.34316,4.4638 6.24807,9.24689 8.66465,14.27414 4.00678,8.52691 4.60779,15.11304 1.66532,18.05552"
       style="fill:#100f0d;fill-opacity:1;fill-rule:nonzero;stroke:none;stroke-width:0.00626057" />
    <path
       id="path7"
       d="m 428.7511,693.28427 c -4.66413,0 -8.44552,-3.78139 -8.44552,-8.44552 0,-4.66414 3.78139,-8.44553 8.44552,-8.44553 4.66414,0 8.44553,3.78139 8.44553,8.44553 -0.006,4.65787 -3.78765,8.43926 -8.44553,8.44552 z m 12.02032,-20.46584 c -3.78764,-3.80018 -7.80694,-7.37497 -12.02032,-10.69308 -8.42674,6.66126 -16.05213,14.28039 -22.7134,22.7134 3.31812,4.21337 6.89291,8.22641 10.69308,12.01406 3.78766,3.80017 7.80695,7.37497 12.02032,10.69934 4.21964,-3.31811 8.23268,-6.89291 12.02032,-10.69934 3.80018,-3.78765 7.37497,-7.80069 10.69309,-12.01406 -3.31812,-4.21338 -6.89291,-8.23267 -10.69309,-12.02032"
       style="fill:#100f0d;fill-opacity:1;fill-rule:nonzero;stroke:none;stroke-width:0.00626057" />
    <path
       id="path8"
       d="m 425.90254,659.96544 c -8.13876,6.50475 -15.52625,13.89224 -22.031,22.031 -3.34315,-4.46379 -6.24806,-9.24688 -8.66464,-14.27413 -3.99426,-8.5457 -4.58901,-15.13809 -1.64654,-18.07431 1.23334,-1.23333 3.11777,-1.84061 5.49053,-1.84061 3.31185,0 7.61914,1.17699 12.58378,3.48715 5.03351,2.41658 9.81033,5.32149 14.26787,8.6709"
       style="fill:#100f0d;fill-opacity:1;fill-rule:nonzero;stroke:none;stroke-width:0.00626057" />
    <path
       id="path9"
       d="m 425.22577,681.31466 c 1.94642,-1.94641 5.10175,-1.94641 7.04754,0 1.94642,1.94579 1.94642,5.10113 0,7.04755 -1.94579,1.94578 -5.10112,1.94578 -7.04754,0 -1.94579,-1.94642 -1.94579,-5.10176 0,-7.04755"
       style="fill:#100f0d;fill-opacity:1;fill-rule:nonzero;stroke:none;stroke-width:0.00626057" />
    <path
       id="path10"
       d="m 396.64057,606.90073 v 19.80849 h -3.4621 v -19.80849 c 0,-0.95786 0.77631,-1.73418 1.73418,-1.73418 0.95787,0 1.72792,0.77632 1.72792,1.73418"
       style="fill:#100f0d;fill-opacity:1;fill-rule:nonzero;stroke:none;stroke-width:0.00626057" />
    <path
       id="path11"
       d="m 419.20371,606.90073 v 19.80849 h -3.4621 v -19.80849 c 0,-0.95786 0.77631,-1.73418 1.73418,-1.73418 0.95787,0 1.72792,0.77632 1.72792,1.73418"
       style="fill:#100f0d;fill-opacity:1;fill-rule:nonzero;stroke:none;stroke-width:0.00626057" />
    <path
       id="path12"
       d="m 441.7606,606.90073 v 19.80849 h -3.4621 v -19.80849 c 0,-0.95786 0.77631,-1.73418 1.73418,-1.73418 0.95787,0 1.72792,0.77632 1.72792,1.73418"
       style="fill:#100f0d;fill-opacity:1;fill-rule:nonzero;stroke:none;stroke-width:0.00626057" />
    <path
       id="path13"
       d="m 464.32374,606.90073 v 19.80849 h -3.4621 v -19.80849 c 0,-0.95786 0.77631,-1.73418 1.73418,-1.73418 0.95787,0 1.72792,0.77632 1.72792,1.73418"
       style="fill:#100f0d;fill-opacity:1;fill-rule:nonzero;stroke:none;stroke-width:0.00626057" />
    <path
       id="path14"
       d="m 396.64057,742.96201 v 19.80849 c 0,0.95787 -0.77631,1.73418 -1.73418,1.73418 -0.95787,0 -1.73419,-0.77631 -1.73419,-1.73418 v -19.80849 h 3.46837"
       style="fill:#100f0d;fill-opacity:1;fill-rule:nonzero;stroke:none;stroke-width:0.00626057" />
    <path
       id="path15"
       d="m 419.20371,742.96201 v 19.80849 c 0,0.95787 -0.77631,1.73418 -1.73418,1.73418 -0.95787,0 -1.73418,-0.77631 -1.73418,-1.73418 v -19.80849 h 3.46836"
       style="fill:#100f0d;fill-opacity:1;fill-rule:nonzero;stroke:none;stroke-width:0.00626057" />
    <path
       id="path16"
       d="m 441.7606,742.96201 v 19.80849 c 0,0.95787 -0.77631,1.73418 -1.73418,1.73418 -0.95787,0 -1.73419,-0.77631 -1.73419,-1.73418 v -19.80849 h 3.46837"
       style="fill:#100f0d;fill-opacity:1;fill-rule:nonzero;stroke:none;stroke-width:0.00626057" />
    <path
       id="path17"
       d="m 508.4233,651.00029 c 0,0.95787 -0.77631,1.73418 -1.73418,1.73418 h -19.80849 v -3.4621 h 19.80849 c 0.9516,-0.006 1.73418,0.77005 1.73418,1.72792"
       style="fill:#100f0d;fill-opacity:1;fill-rule:nonzero;stroke:none;stroke-width:0.00626057" />
    <path
       id="path18"
       d="m 508.4233,673.55717 c 0,0.95787 -0.77631,1.73418 -1.73418,1.73418 h -19.80849 v -3.4621 h 19.80849 c 0.9516,0 1.73418,0.77005 1.73418,1.72792"
       style="fill:#100f0d;fill-opacity:1;fill-rule:nonzero;stroke:none;stroke-width:0.00626057" />
    <path
       id="path19"
       d="m 508.4233,696.12032 c 0,0.95787 -0.77631,1.73418 -1.73418,1.73418 h -19.80849 v -3.4621 h 19.80849 c 0.9516,-0.006 1.73418,0.77005 1.73418,1.72792"
       style="fill:#100f0d;fill-opacity:1;fill-rule:nonzero;stroke:none;stroke-width:0.00626057" />
    <path
       id="path20"
       d="m 508.4233,718.6772 c 0,0.95787 -0.77631,1.73418 -1.73418,1.73418 h -19.80849 v -3.4621 h 19.80849 c 0.9516,0 1.73418,0.77005 1.73418,1.72792"
       style="fill:#100f0d;fill-opacity:1;fill-rule:nonzero;stroke:none;stroke-width:0.00626057" />
    <path
       id="path21"
       d="m 370.62158,649.26611 v 3.4621 h -19.80849 c -0.95787,0 -1.73418,-0.77631 -1.73418,-1.73418 0,-0.95787 0.77631,-1.73418 1.73418,-1.73418 l 19.80849,0.006 v 0"
       style="fill:#100f0d;fill-opacity:1;fill-rule:nonzero;stroke:none;stroke-width:0.00626057" />
    <path
       id="path22"
       d="m 370.62158,671.82925 v 3.4621 h -19.80849 c -0.95787,0 -1.73418,-0.77631 -1.73418,-1.73418 0,-0.95787 0.77631,-1.73418 1.73418,-1.73418 l 19.80849,0.006 v 0"
       style="fill:#100f0d;fill-opacity:1;fill-rule:nonzero;stroke:none;stroke-width:0.00626057" />
    <path
       id="path23"
       d="m 370.62158,694.38614 v 3.4621 h -19.80849 c -0.95787,0 -1.73418,-0.77631 -1.73418,-1.73418 0,-0.95787 0.77631,-1.73418 1.73418,-1.73418 l 19.80849,0.006 v 0"
       style="fill:#100f0d;fill-opacity:1;fill-rule:nonzero;stroke:none;stroke-width:0.00626057" />
    <path
       id="path24"
       d="m 370.62158,716.94928 v 3.4621 h -19.80849 c -0.95787,0 -1.73418,-0.77631 -1.73418,-1.73418 0,-0.95787 0.77631,-1.73418 1.73418,-1.73418 l 19.80849,0.006 v 0"
       style="fill:#100f0d;fill-opacity:1;fill-rule:nonzero;stroke:none;stroke-width:0.00626057" />
    <g
       id="g24"
       transform="matrix(0.0045346,0,0,0.0045346,108.74832,91.248354)"
       style="fill:#1bb6c4;fill-opacity:1">
      <path
         id="path3-6"
         d="m 3363.3332,2915.3334 c 100.2667,214.9333 107.4667,381.2 20.4,468.2666 -40.4,40.4 -97.5999,60.4 -168.9333,60.4 -82.6666,0 -184,-27.0666 -299.3333,-80.8 -106.5333,-49.7333 -219.6,-119.4666 -333.3333,-204.7999 -113.7334,85.3333 -226.8,154.9333 -333.3334,204.7999 -115.3333,53.7334 -216.8,80.8 -299.3333,80.8 -71.3333,0 -128.5333,-20.1333 -168.9333,-60.4 -87.2,-87.2 -79.8667,-253.3333 20.4,-468.2666 49.7333,-106.5333 119.4667,-219.6 204.8,-333.3333 -85.3333,-113.7334 -154.9333,-226.8 -204.8,-333.3334 -100.2667,-214.9333 -107.4667,-381.2 -20.4,-468.2666 87.0667,-87.0667 253.3333,-79.8667 468.2666,20.4 106.5334,49.7333 219.6,119.4666 333.3334,204.8 113.7333,-85.3334 226.8,-154.9334 333.3333,-204.8 214.9333,-100.2667 381.2,-107.4667 468.2666,-20.4 40.4,40.4 60.5334,97.6 60.5334,169.0666 0,82.5334 -27.0667,183.8667 -81.2,299.2 -49.7333,106.5334 -119.4667,219.6 -204.8,333.3334 85.6,113.7333 155.3333,226.8 205.0666,333.3333 z m 234.8,-1497.6 H 1565.8666 c -81.7333,0.1334 -147.8666,66.2667 -148,148 v 2032.4 c 0.1334,81.7333 66.2667,147.8666 148,148 h 2032.4 c 81.7333,-0.1334 147.8666,-66.2667 148,-148 V 1565.8668 c -0.1334,-81.7334 -66.4,-148 -148.1334,-148.1334"
         style="fill:#1bb6c4;fill-opacity:1;fill-rule:nonzero;stroke:none;stroke-width:0.133333" />
      <path
         id="path4-1"
         d="m 3296.3999,2217.3334 c -51.4666,107.0667 -113.2,208.9333 -184.5333,304 -69.0667,-86.6667 -142.9333,-169.2 -221.3333,-247.6 -78.2667,-78.4 -160.9334,-152.2667 -247.6,-221.3333 95.0666,-71.2 196.9333,-133.0667 304,-184.5334 105.7333,-49.3333 197.3333,-74.2666 268,-74.2666 50.8,0 90.8,13.0667 116.9333,39.2 62.2666,62.4 49.4666,202.6666 -35.4667,384.5333"
         style="fill:#1bb6c4;fill-opacity:1;fill-rule:nonzero;stroke:none;stroke-width:0.133333" />
      <path
         id="path5-0"
         d="m 2521.3333,3111.7334 c -95.0667,71.2 -196.9334,133.0666 -304,184.5333 -182,85.0667 -322.4,97.7333 -384.9333,35.0667 -62.6667,-62.6667 -49.8667,-202.9333 35.0666,-384.9333 51.4667,-107.0667 113.2,-208.9334 184.5333,-304 69.0667,86.6666 142.9334,169.2 221.3334,247.6 78.5333,78.5333 161.3333,152.5333 248,221.7333"
         style="fill:#1bb6c4;fill-opacity:1;fill-rule:nonzero;stroke:none;stroke-width:0.133333" />
      <path
         id="path6-6"
         d="m 3331.4666,3331.4667 c -62.6667,62.6667 -202.9333,49.8667 -384.9333,-35.0667 -107.0667,-51.4666 -208.9334,-113.2 -304,-184.5333 86.6666,-69.0666 169.2,-142.9333 247.6,-221.3333 78.4,-78.2667 152.2666,-160.9333 221.3333,-247.6 71.2,95.0667 133.0667,196.9333 184.5333,304 85.3333,181.6 98.1333,321.8666 35.4667,384.5333"
         style="fill:#1bb6c4;fill-opacity:1;fill-rule:nonzero;stroke:none;stroke-width:0.133333" />
      <path
         id="path7-3"
         d="m 2581.9999,2761.8667 c -99.3333,0 -179.8666,-80.5333 -179.8666,-179.8666 0,-99.3334 80.5333,-179.8667 179.8666,-179.8667 99.3334,0 179.8667,80.5333 179.8667,179.8667 -0.1333,99.2 -80.6667,179.7333 -179.8667,179.8666 z m 256,-435.8666 c -80.6666,-80.9334 -166.2666,-157.0667 -256,-227.7334 -179.4666,141.8667 -341.8666,304.1334 -483.7333,483.7334 70.6667,89.7333 146.8,175.2 227.7333,255.8666 80.6667,80.9334 166.2667,157.0667 256,227.8667 89.8667,-70.6667 175.3334,-146.8 256,-227.8667 80.9334,-80.6666 157.0667,-166.1333 227.7334,-255.8666 -70.6667,-89.7334 -146.8,-175.3334 -227.7334,-256"
         style="fill:#1bb6c4;fill-opacity:1;fill-rule:nonzero;stroke:none;stroke-width:0.133333" />
      <path
         id="path8-2"
         d="m 2521.3333,2052.2667 c -173.3334,138.5334 -330.6667,295.8667 -469.2,469.2 -71.2,-95.0666 -133.0667,-196.9333 -184.5333,-304 -85.0667,-182 -97.7334,-322.4 -35.0667,-384.9333 26.2667,-26.2666 66.4,-39.2 116.9333,-39.2 70.5333,0 162.2667,25.0667 268,74.2667 107.2,51.4666 208.9333,113.3333 303.8667,184.6666"
         style="fill:#1bb6c4;fill-opacity:1;fill-rule:nonzero;stroke:none;stroke-width:0.133333" />
      <path
         id="path9-0"
         d="m 2506.9199,2506.9467 c 41.4534,-41.4533 108.6534,-41.4533 150.0934,0 41.4533,41.44 41.4533,108.64 0,150.0934 -41.44,41.44 -108.64,41.44 -150.0934,0 -41.44,-41.4534 -41.44,-108.6534 0,-150.0934"
         style="fill:#1bb6c4;fill-opacity:1;fill-rule:nonzero;stroke:none;stroke-width:0.133333" />
      <path
         id="path10-6"
         d="M 1898.1333,922.13344 V 1344.0001 H 1824.4 V 922.13344 c 0,-20.4 16.5333,-36.93333 36.9333,-36.93333 20.4,0 36.8,16.53333 36.8,36.93333"
         style="fill:#1bb6c4;fill-opacity:1;fill-rule:nonzero;stroke:none;stroke-width:0.133333" />
      <path
         id="path11-1"
         d="m 2378.6666,922.13344 v 421.86666 h -73.7333 V 922.13344 c 0,-20.4 16.5333,-36.93333 36.9333,-36.93333 20.4,0 36.8,16.53333 36.8,36.93333"
         style="fill:#1bb6c4;fill-opacity:1;fill-rule:nonzero;stroke:none;stroke-width:0.133333" />
      <path
         id="path12-5"
         d="m 2859.0666,922.13344 v 421.86666 h -73.7333 V 922.13344 c 0,-20.4 16.5333,-36.93333 36.9333,-36.93333 20.4,0 36.8,16.53333 36.8,36.93333"
         style="fill:#1bb6c4;fill-opacity:1;fill-rule:nonzero;stroke:none;stroke-width:0.133333" />
      <path
         id="path13-5"
         d="m 3339.5999,922.13344 v 421.86666 h -73.7333 V 922.13344 c 0,-20.4 16.5333,-36.93333 36.9333,-36.93333 20.4,0 36.8,16.53333 36.8,36.93333"
         style="fill:#1bb6c4;fill-opacity:1;fill-rule:nonzero;stroke:none;stroke-width:0.133333" />
      <path
         id="path14-4"
         d="m 1898.1333,3819.8667 v 421.8667 c 0,20.4 -16.5333,36.9333 -36.9333,36.9333 -20.4,0 -36.9334,-16.5333 -36.9334,-36.9333 v -421.8667 h 73.8667"
         style="fill:#1bb6c4;fill-opacity:1;fill-rule:nonzero;stroke:none;stroke-width:0.133333" />
      <path
         id="path15-7"
         d="m 2378.6666,3819.8667 v 421.8667 c 0,20.4 -16.5333,36.9333 -36.9333,36.9333 -20.4,0 -36.9334,-16.5333 -36.9334,-36.9333 v -421.8667 h 73.8667"
         style="fill:#1bb6c4;fill-opacity:1;fill-rule:nonzero;stroke:none;stroke-width:0.133333" />
      <path
         id="path16-6"
         d="m 2859.0666,3819.8667 v 421.8667 c 0,20.4 -16.5333,36.9333 -36.9333,36.9333 -20.4,0 -36.9334,-16.5333 -36.9334,-36.9333 v -421.8667 h 73.8667"
         style="fill:#1bb6c4;fill-opacity:1;fill-rule:nonzero;stroke:none;stroke-width:0.133333" />
      <path
         id="path16-4"
         d="m 3299.1999,3819.8667 v 421.8667 c 0,20.4 -16.5333,36.9333 -36.9333,36.9333 -20.4,0 -36.9334,-16.5333 -36.9334,-36.9333 v -421.8667 h 73.8667"
         style="fill:#1bb6c4;fill-opacity:1;fill-rule:nonzero;stroke:none;stroke-width:0.133333" />
      <path
         id="path17-5"
         d="m 4278.7999,1861.3334 c 0,20.4 -16.5333,36.9333 -36.9333,36.9333 h -421.8667 v -73.7333 h 421.8667 c 20.2666,-0.1333 36.9333,16.4 36.9333,36.8"
         style="fill:#1bb6c4;fill-opacity:1;fill-rule:nonzero;stroke:none;stroke-width:0.133333" />
      <path
         id="path18-6"
         d="m 4278.7999,2341.7334 c 0,20.4 -16.5333,36.9333 -36.9333,36.9333 h -421.8667 v -73.7333 h 421.8667 c 20.2666,0 36.9333,16.4 36.9333,36.8"
         style="fill:#1bb6c4;fill-opacity:1;fill-rule:nonzero;stroke:none;stroke-width:0.133333" />
      <path
         id="path19-9"
         d="m 4278.7999,2822.2667 c 0,20.4 -16.5333,36.9334 -36.9333,36.9334 h -421.8667 v -73.7334 h 421.8667 c 20.2666,-0.1333 36.9333,16.4 36.9333,36.8"
         style="fill:#1bb6c4;fill-opacity:1;fill-rule:nonzero;stroke:none;stroke-width:0.133333" />
      <path
         id="path20-3"
         d="m 4278.7999,3302.6667 c 0,20.4 -16.5333,36.9333 -36.9333,36.9333 h -421.8667 v -73.7333 h 421.8667 c 20.2666,0 36.9333,16.4 36.9333,36.8"
         style="fill:#1bb6c4;fill-opacity:1;fill-rule:nonzero;stroke:none;stroke-width:0.133333" />
      <path
         id="path21-7"
         d="m 1344,1824.4001 v 73.7333 H 922.13331 c -20.4,0 -36.93333,-16.5333 -36.93333,-36.9333 0,-20.4 16.53333,-36.9333 36.93333,-36.9333 L 1344,1824.4001 v 0"
         style="fill:#1bb6c4;fill-opacity:1;fill-rule:nonzero;stroke:none;stroke-width:0.133333" />
      <path
         id="path22-4"
         d="m 1344,2304.9334 v 73.7333 H 922.13331 c -20.4,0 -36.93333,-16.5333 -36.93333,-36.9333 0,-20.4 16.53333,-36.9333 36.93333,-36.9333 L 1344,2304.9334 v 0"
         style="fill:#1bb6c4;fill-opacity:1;fill-rule:nonzero;stroke:none;stroke-width:0.133333" />
      <path
         id="path23-5"
         d="m 1344,2785.3334 v 73.7333 H 922.13331 c -20.4,0 -36.93333,-16.5333 -36.93333,-36.9333 0,-20.4 16.53333,-36.9333 36.93333,-36.9333 L 1344,2785.3334 v 0"
         style="fill:#1bb6c4;fill-opacity:1;fill-rule:nonzero;stroke:none;stroke-width:0.133333" />
      <path
         id="path24-2"
         d="M 1344,3265.8667 V 3339.6 H 922.13331 c -20.4,0 -36.93333,-16.5333 -36.93333,-36.9333 0,-20.4 16.53333,-36.9333 36.93333,-36.9333 L 1344,3265.8667 v 0"
         style="fill:#1bb6c4;fill-opacity:1;fill-rule:nonzero;stroke:none;stroke-width:0.133333" />
    </g>
  </g>
</svg>
