<?xml version="1.0" encoding="UTF-8" standalone="no"?>
<!-- Created with Inkscape (http://www.inkscape.org/) -->

<svg
   width="201.56651mm"
   height="24.112345mm"
   viewBox="0 0 201.56651 24.112345"
   version="1.1"
   id="svg1"
   sodipodi:docname="logo.svg"
   inkscape:version="1.3.2 (091e20ef0f, 2023-11-25, custom)"
   xmlns:inkscape="http://www.inkscape.org/namespaces/inkscape"
   xmlns:sodipodi="http://sodipodi.sourceforge.net/DTD/sodipodi-0.dtd"
   xmlns="http://www.w3.org/2000/svg"
   xmlns:svg="http://www.w3.org/2000/svg">
  <sodipodi:namedview
     id="namedview1"
     pagecolor="#ffffff"
     bordercolor="#000000"
     borderopacity="0.25"
     inkscape:showpageshadow="2"
     inkscape:pageopacity="0.0"
     inkscape:pagecheckerboard="0"
     inkscape:deskcolor="#d1d1d1"
     inkscape:document-units="mm"
     inkscape:zoom="0.84345385"
     inkscape:cx="260.23949"
     inkscape:cy="145.82896"
     inkscape:window-width="1920"
     inkscape:window-height="1011"
     inkscape:window-x="0"
     inkscape:window-y="0"
     inkscape:window-maximized="1"
     inkscape:current-layer="layer1" />
  <defs
     id="defs1" />
  <g
     inkscape:label="Layer 1"
     inkscape:groupmode="layer"
     id="layer1"
     transform="translate(-4.9175293,-98.394984)">
    <path
       id="text1"
       style="font-weight:600;font-size:19.7556px;font-family:Poppins;-inkscape-font-specification:'Poppins Semi-Bold';fill:#1bb6c4;fill-opacity:1;stroke:none;stroke-width:0.0264583"
       d="m 152.41292,104.22568 c -2.84481,0 -4.85965,1.50176 -4.85965,3.99097 -0.0197,4.99816 7.09207,3.20051 7.09207,6.1836 0,0.98778 -0.77043,1.67897 -2.07429,1.67897 -1.28412,0 -2.01491,-0.73078 -2.09393,-1.8371 h -2.96364 c 0.0395,2.60774 2.25244,4.1088 5.117,4.1088 3.14113,0 4.87929,-1.95533 4.87929,-4.12843 0,-4.85988 -7.07244,-3.31912 -7.07244,-6.0849 0,-1.12607 0.80997,-1.65957 1.89652,-1.62006 1.18533,0.0198 1.91632,0.73093 1.97559,1.63969 h 3.0422 c -0.1778,-2.48921 -2.11367,-3.93154 -4.93872,-3.93154 z m 48.97427,0 c -2.84481,0 -4.86017,1.50176 -4.86017,3.99097 -0.0198,4.99816 7.09259,3.20051 7.09259,6.1836 0,0.98778 -0.77042,1.67897 -2.07429,1.67897 -1.28412,0 -2.01543,-0.73078 -2.09445,-1.8371 h -2.96312 c 0.0395,2.60774 2.25192,4.1088 5.11648,4.1088 3.14114,0 4.87981,-1.95533 4.87981,-4.12843 0,-4.85988 -7.07244,-3.31912 -7.07244,-6.0849 0,-1.12607 0.80997,-1.65957 1.89653,-1.62006 1.18532,0.0198 1.91632,0.73093 1.97559,1.63969 h 3.04219 c -0.1778,-2.48921 -2.11367,-3.93154 -4.93872,-3.93154 z m -189.476289,0.0202 c -0.117013,0 -0.224201,0.0265 -0.339514,0.0315 l 0.520381,2.48098 c 1.38368,0.0592 2.497797,0.69177 3.118673,1.95234 h 3.180168 c -0.928512,-2.82505 -3.417593,-4.46485 -6.479708,-4.46485 z m -1.327568,0.12299 c -3.2956226,0.57596 -5.6658037,3.27664 -5.6658037,6.92981 0,4.12892 3.0224998,7.03265 6.9933717,7.03265 0.544496,0 1.062566,-0.0688 1.565279,-0.16898 l -0.510046,-2.43241 c -0.336717,0.0863 -0.695265,0.13229 -1.07487,0.13229 -2.4101815,0 -4.1289471,-1.77801 -4.1289471,-4.56355 0,-2.48403 1.3506151,-4.14131 3.3326131,-4.48965 z m 10.17819,0.0346 v 13.80949 h 8.001062 v -2.25206 h -5.235339 v -3.65507 h 4.642611 v -2.19263 h -4.642611 v -3.45716 h 5.235339 v -2.25257 z m 55.888579,0 -4.958871,13.80949 h 2.904216 l 0.908988,-2.62775 h 5.491655 l 0.908988,2.62775 h 2.923853 L 79.87006,104.40345 Z m 27.796238,0 v 13.80949 h 8.00106 v -2.25206 h -5.23534 v -3.65507 h 4.64261 v -2.19263 h -4.64261 v -3.45716 h 5.23534 v -2.25257 z m 70.96207,0 -4.95887,13.80949 h 2.90422 l 0.90899,-2.62775 h 5.49165 l 0.90899,2.62775 h 2.92385 l -4.95887,-13.80949 z m -144.136934,0.0201 v 13.78934 h 7.309632 v -2.19315 H 34.037199 V 104.4236 Z m 9.067664,0 v 13.78934 h 7.309631 v -2.19315 H 43.104862 V 104.4236 Z m 9.06818,0 v 13.78934 h 2.765723 v -5.82807 h 4.405416 v -2.19263 h -4.405416 v -3.53622 h 5.748486 v -2.23242 z m 10.470162,0 v 13.78934 h 2.765723 v -5.37383 h 1.303796 l 3.042708,5.37383 h 3.200322 l -3.299024,-5.59087 c 2.212625,-0.59266 3.140894,-2.29159 3.140894,-3.97082 0,-2.31141 -1.65957,-4.22765 -4.978507,-4.22765 z m 26.8087,0 v 13.78934 h 2.765722 v -8.96896 l 3.713985,8.96896 h 2.09393 l 3.694348,-8.96896 v 8.96896 h 2.765723 V 104.4236 h -3.121257 l -4.385779,10.25312 -4.385779,-10.25312 z m 72.482918,0 v 2.23242 h 3.67471 v 11.55692 h 2.76572 v -11.55692 h 3.67471 v -2.23242 z m 25.54417,0 v 2.23242 h 3.67471 v 11.55692 h 2.76573 v -11.55692 h 3.67471 v -2.23242 z M 62.643205,106.7149 h 2.311487 c 1.540935,0 2.232421,0.7709 2.232421,1.99575 0,1.2446 -0.691486,2.05414 -2.232421,2.05414 h -2.311487 z m 15.607316,0.88935 1.995227,5.76864 h -3.990971 z m 98.758309,0 1.99523,5.76864 h -3.99097 z M 15.210441,113.8664 c -0.319466,0.6583 -0.770527,1.14605 -1.318266,1.47692 l 0.537435,2.5616 c 1.863396,-0.64849 3.305553,-2.03034 3.960999,-4.03852 z" />
    <g
       id="g24"
       transform="matrix(0.00710552,0,0,0.00710552,112.51373,92.105177)"
       style="fill:#1bb6c4;fill-opacity:1">
      <path
         id="path3-6"
         d="m 3363.3332,2915.3334 c 100.2667,214.9333 107.4667,381.2 20.4,468.2666 -40.4,40.4 -97.5999,60.4 -168.9333,60.4 -82.6666,0 -184,-27.0666 -299.3333,-80.8 -106.5333,-49.7333 -219.6,-119.4666 -333.3333,-204.7999 -113.7334,85.3333 -226.8,154.9333 -333.3334,204.7999 -115.3333,53.7334 -216.8,80.8 -299.3333,80.8 -71.3333,0 -128.5333,-20.1333 -168.9333,-60.4 -87.2,-87.2 -79.8667,-253.3333 20.4,-468.2666 49.7333,-106.5333 119.4667,-219.6 204.8,-333.3333 -85.3333,-113.7334 -154.9333,-226.8 -204.8,-333.3334 -100.2667,-214.9333 -107.4667,-381.2 -20.4,-468.2666 87.0667,-87.0667 253.3333,-79.8667 468.2666,20.4 106.5334,49.7333 219.6,119.4666 333.3334,204.8 113.7333,-85.3334 226.8,-154.9334 333.3333,-204.8 214.9333,-100.2667 381.2,-107.4667 468.2666,-20.4 40.4,40.4 60.5334,97.6 60.5334,169.0666 0,82.5334 -27.0667,183.8667 -81.2,299.2 -49.7333,106.5334 -119.4667,219.6 -204.8,333.3334 85.6,113.7333 155.3333,226.8 205.0666,333.3333 z m 234.8,-1497.6 H 1565.8666 c -81.7333,0.1334 -147.8666,66.2667 -148,148 v 2032.4 c 0.1334,81.7333 66.2667,147.8666 148,148 h 2032.4 c 81.7333,-0.1334 147.8666,-66.2667 148,-148 V 1565.8668 c -0.1334,-81.7334 -66.4,-148 -148.1334,-148.1334"
         style="fill:#1bb6c4;fill-opacity:1;fill-rule:nonzero;stroke:none;stroke-width:0.133333" />
      <path
         id="path4-1"
         d="m 3296.3999,2217.3334 c -51.4666,107.0667 -113.2,208.9333 -184.5333,304 -69.0667,-86.6667 -142.9333,-169.2 -221.3333,-247.6 -78.2667,-78.4 -160.9334,-152.2667 -247.6,-221.3333 95.0666,-71.2 196.9333,-133.0667 304,-184.5334 105.7333,-49.3333 197.3333,-74.2666 268,-74.2666 50.8,0 90.8,13.0667 116.9333,39.2 62.2666,62.4 49.4666,202.6666 -35.4667,384.5333"
         style="fill:#1bb6c4;fill-opacity:1;fill-rule:nonzero;stroke:none;stroke-width:0.133333" />
      <path
         id="path5-0"
         d="m 2521.3333,3111.7334 c -95.0667,71.2 -196.9334,133.0666 -304,184.5333 -182,85.0667 -322.4,97.7333 -384.9333,35.0667 -62.6667,-62.6667 -49.8667,-202.9333 35.0666,-384.9333 51.4667,-107.0667 113.2,-208.9334 184.5333,-304 69.0667,86.6666 142.9334,169.2 221.3334,247.6 78.5333,78.5333 161.3333,152.5333 248,221.7333"
         style="fill:#1bb6c4;fill-opacity:1;fill-rule:nonzero;stroke:none;stroke-width:0.133333" />
      <path
         id="path6-6"
         d="m 3331.4666,3331.4667 c -62.6667,62.6667 -202.9333,49.8667 -384.9333,-35.0667 -107.0667,-51.4666 -208.9334,-113.2 -304,-184.5333 86.6666,-69.0666 169.2,-142.9333 247.6,-221.3333 78.4,-78.2667 152.2666,-160.9333 221.3333,-247.6 71.2,95.0667 133.0667,196.9333 184.5333,304 85.3333,181.6 98.1333,321.8666 35.4667,384.5333"
         style="fill:#1bb6c4;fill-opacity:1;fill-rule:nonzero;stroke:none;stroke-width:0.133333" />
      <path
         id="path7-3"
         d="m 2581.9999,2761.8667 c -99.3333,0 -179.8666,-80.5333 -179.8666,-179.8666 0,-99.3334 80.5333,-179.8667 179.8666,-179.8667 99.3334,0 179.8667,80.5333 179.8667,179.8667 -0.1333,99.2 -80.6667,179.7333 -179.8667,179.8666 z m 256,-435.8666 c -80.6666,-80.9334 -166.2666,-157.0667 -256,-227.7334 -179.4666,141.8667 -341.8666,304.1334 -483.7333,483.7334 70.6667,89.7333 146.8,175.2 227.7333,255.8666 80.6667,80.9334 166.2667,157.0667 256,227.8667 89.8667,-70.6667 175.3334,-146.8 256,-227.8667 80.9334,-80.6666 157.0667,-166.1333 227.7334,-255.8666 -70.6667,-89.7334 -146.8,-175.3334 -227.7334,-256"
         style="fill:#1bb6c4;fill-opacity:1;fill-rule:nonzero;stroke:none;stroke-width:0.133333" />
      <path
         id="path8-2"
         d="m 2521.3333,2052.2667 c -173.3334,138.5334 -330.6667,295.8667 -469.2,469.2 -71.2,-95.0666 -133.0667,-196.9333 -184.5333,-304 -85.0667,-182 -97.7334,-322.4 -35.0667,-384.9333 26.2667,-26.2666 66.4,-39.2 116.9333,-39.2 70.5333,0 162.2667,25.0667 268,74.2667 107.2,51.4666 208.9333,113.3333 303.8667,184.6666"
         style="fill:#1bb6c4;fill-opacity:1;fill-rule:nonzero;stroke:none;stroke-width:0.133333" />
      <path
         id="path9-0"
         d="m 2506.9199,2506.9467 c 41.4534,-41.4533 108.6534,-41.4533 150.0934,0 41.4533,41.44 41.4533,108.64 0,150.0934 -41.44,41.44 -108.64,41.44 -150.0934,0 -41.44,-41.4534 -41.44,-108.6534 0,-150.0934"
         style="fill:#1bb6c4;fill-opacity:1;fill-rule:nonzero;stroke:none;stroke-width:0.133333" />
      <path
         id="path10-6"
         d="M 1898.1333,922.13344 V 1344.0001 H 1824.4 V 922.13344 c 0,-20.4 16.5333,-36.93333 36.9333,-36.93333 20.4,0 36.8,16.53333 36.8,36.93333"
         style="fill:#1bb6c4;fill-opacity:1;fill-rule:nonzero;stroke:none;stroke-width:0.133333" />
      <path
         id="path11-1"
         d="m 2378.6666,922.13344 v 421.86666 h -73.7333 V 922.13344 c 0,-20.4 16.5333,-36.93333 36.9333,-36.93333 20.4,0 36.8,16.53333 36.8,36.93333"
         style="fill:#1bb6c4;fill-opacity:1;fill-rule:nonzero;stroke:none;stroke-width:0.133333" />
      <path
         id="path12-5"
         d="m 2859.0666,922.13344 v 421.86666 h -73.7333 V 922.13344 c 0,-20.4 16.5333,-36.93333 36.9333,-36.93333 20.4,0 36.8,16.53333 36.8,36.93333"
         style="fill:#1bb6c4;fill-opacity:1;fill-rule:nonzero;stroke:none;stroke-width:0.133333" />
      <path
         id="path13-5"
         d="m 3339.5999,922.13344 v 421.86666 h -73.7333 V 922.13344 c 0,-20.4 16.5333,-36.93333 36.9333,-36.93333 20.4,0 36.8,16.53333 36.8,36.93333"
         style="fill:#1bb6c4;fill-opacity:1;fill-rule:nonzero;stroke:none;stroke-width:0.133333" />
      <path
         id="path14-4"
         d="m 1898.1333,3819.8667 v 421.8667 c 0,20.4 -16.5333,36.9333 -36.9333,36.9333 -20.4,0 -36.9334,-16.5333 -36.9334,-36.9333 v -421.8667 h 73.8667"
         style="fill:#1bb6c4;fill-opacity:1;fill-rule:nonzero;stroke:none;stroke-width:0.133333" />
      <path
         id="path15-7"
         d="m 2378.6666,3819.8667 v 421.8667 c 0,20.4 -16.5333,36.9333 -36.9333,36.9333 -20.4,0 -36.9334,-16.5333 -36.9334,-36.9333 v -421.8667 h 73.8667"
         style="fill:#1bb6c4;fill-opacity:1;fill-rule:nonzero;stroke:none;stroke-width:0.133333" />
      <path
         id="path16-6"
         d="m 2859.0666,3819.8667 v 421.8667 c 0,20.4 -16.5333,36.9333 -36.9333,36.9333 -20.4,0 -36.9334,-16.5333 -36.9334,-36.9333 v -421.8667 h 73.8667"
         style="fill:#1bb6c4;fill-opacity:1;fill-rule:nonzero;stroke:none;stroke-width:0.133333" />
      <path
         id="path16-4"
         d="m 3299.1999,3819.8667 v 421.8667 c 0,20.4 -16.5333,36.9333 -36.9333,36.9333 -20.4,0 -36.9334,-16.5333 -36.9334,-36.9333 v -421.8667 h 73.8667"
         style="fill:#1bb6c4;fill-opacity:1;fill-rule:nonzero;stroke:none;stroke-width:0.133333" />
      <path
         id="path17-5"
         d="m 4278.7999,1861.3334 c 0,20.4 -16.5333,36.9333 -36.9333,36.9333 h -421.8667 v -73.7333 h 421.8667 c 20.2666,-0.1333 36.9333,16.4 36.9333,36.8"
         style="fill:#1bb6c4;fill-opacity:1;fill-rule:nonzero;stroke:none;stroke-width:0.133333" />
      <path
         id="path18-6"
         d="m 4278.7999,2341.7334 c 0,20.4 -16.5333,36.9333 -36.9333,36.9333 h -421.8667 v -73.7333 h 421.8667 c 20.2666,0 36.9333,16.4 36.9333,36.8"
         style="fill:#1bb6c4;fill-opacity:1;fill-rule:nonzero;stroke:none;stroke-width:0.133333" />
      <path
         id="path19-9"
         d="m 4278.7999,2822.2667 c 0,20.4 -16.5333,36.9334 -36.9333,36.9334 h -421.8667 v -73.7334 h 421.8667 c 20.2666,-0.1333 36.9333,16.4 36.9333,36.8"
         style="fill:#1bb6c4;fill-opacity:1;fill-rule:nonzero;stroke:none;stroke-width:0.133333" />
      <path
         id="path20-3"
         d="m 4278.7999,3302.6667 c 0,20.4 -16.5333,36.9333 -36.9333,36.9333 h -421.8667 v -73.7333 h 421.8667 c 20.2666,0 36.9333,16.4 36.9333,36.8"
         style="fill:#1bb6c4;fill-opacity:1;fill-rule:nonzero;stroke:none;stroke-width:0.133333" />
      <path
         id="path21-7"
         d="m 1344,1824.4001 v 73.7333 H 922.13331 c -20.4,0 -36.93333,-16.5333 -36.93333,-36.9333 0,-20.4 16.53333,-36.9333 36.93333,-36.9333 L 1344,1824.4001 v 0"
         style="fill:#1bb6c4;fill-opacity:1;fill-rule:nonzero;stroke:none;stroke-width:0.133333" />
      <path
         id="path22-4"
         d="m 1344,2304.9334 v 73.7333 H 922.13331 c -20.4,0 -36.93333,-16.5333 -36.93333,-36.9333 0,-20.4 16.53333,-36.9333 36.93333,-36.9333 L 1344,2304.9334 v 0"
         style="fill:#1bb6c4;fill-opacity:1;fill-rule:nonzero;stroke:none;stroke-width:0.133333" />
      <path
         id="path23-5"
         d="m 1344,2785.3334 v 73.7333 H 922.13331 c -20.4,0 -36.93333,-16.5333 -36.93333,-36.9333 0,-20.4 16.53333,-36.9333 36.93333,-36.9333 L 1344,2785.3334 v 0"
         style="fill:#1bb6c4;fill-opacity:1;fill-rule:nonzero;stroke:none;stroke-width:0.133333" />
      <path
         id="path24-2"
         d="M 1344,3265.8667 V 3339.6 H 922.13331 c -20.4,0 -36.93333,-16.5333 -36.93333,-36.9333 0,-20.4 16.53333,-36.9333 36.93333,-36.9333 L 1344,3265.8667 v 0"
         style="fill:#1bb6c4;fill-opacity:1;fill-rule:nonzero;stroke:none;stroke-width:0.133333" />
    </g>
  </g>
</svg>
