<?xml version="1.0" encoding="UTF-8" standalone="no"?>
<!-- Created with Inkscape (http://www.inkscape.org/) -->

<svg
   width="158.28543mm"
   height="19.215437mm"
   viewBox="0 0 158.28543 19.215437"
   version="1.1"
   id="svg1"
   inkscape:version="1.3.2 (091e20ef0f, 2023-11-25, custom)"
   sodipodi:docname="logo.svg"
   xmlns:inkscape="http://www.inkscape.org/namespaces/inkscape"
   xmlns:sodipodi="http://sodipodi.sourceforge.net/DTD/sodipodi-0.dtd"
   xmlns="http://www.w3.org/2000/svg"
   xmlns:svg="http://www.w3.org/2000/svg">
  <sodipodi:namedview
     id="namedview1"
     pagecolor="#ffffff"
     bordercolor="#000000"
     borderopacity="0.25"
     inkscape:showpageshadow="2"
     inkscape:pageopacity="0.0"
     inkscape:pagecheckerboard="0"
     inkscape:deskcolor="#d1d1d1"
     inkscape:document-units="mm"
     inkscape:zoom="0.71090067"
     inkscape:cx="405.82322"
     inkscape:cy="-317.90658"
     inkscape:window-width="1920"
     inkscape:window-height="1011"
     inkscape:window-x="0"
     inkscape:window-y="0"
     inkscape:window-maximized="1"
     inkscape:current-layer="layer1" />
  <defs
     id="defs1" />
  <g
     inkscape:label="Layer 1"
     inkscape:groupmode="layer"
     id="layer1"
     transform="translate(-19.816004,-93.344279)">
    <path
       id="path1"
       style="color:#000000;-inkscape-font-specification:'Noto Sans';fill:#1bb6c4;fill-opacity:1;-inkscape-stroke:none"
       d="m 57.987317,95.296651 c -1.079972,0 -1.92269,0.302632 -2.528528,0.908471 -0.605837,0.592667 -0.908988,1.573771 -0.908988,2.94349 v 0.612883 l -1.856734,0.592215 v 0.81028 h 1.856734 v 9.24543 h 1.738912 v -9.24543 h 2.66702 v -1.343584 h -2.66702 v -0.691431 c 0,-0.829739 0.137867,-1.43552 0.414445,-1.81746 0.289748,-0.395113 0.724815,-0.592729 1.304313,-0.592729 0.289749,0 0.572466,0.03284 0.849044,0.0987 0.276577,0.06584 0.520494,0.132054 0.731221,0.197921 l 0.454236,-1.363224 C 59.791734,95.560013 59.489101,95.480856 59.1335,95.41499 58.79107,95.33596 58.408769,95.296651 57.987317,95.296651 Z m -14.105082,0.0987 V 110.40942 H 45.62063 V 95.395353 Z m 5.096846,0 v 15.014069 h 1.738396 V 95.395353 Z m -22.42292,0.711068 c -1.448743,0 -2.680229,0.309619 -3.694349,0.928625 -1.014119,0.605839 -1.784154,1.455536 -2.31097,2.548682 -0.411403,0.865004 -0.650365,1.844864 -0.732255,2.929534 h 1.892908 c 0.121641,-1.36285 0.526538,-2.48136 1.249536,-3.324859 0.869246,-1.014126 2.060898,-1.521354 3.575493,-1.521354 0.632179,0 1.211579,0.07915 1.738395,0.237195 0.539985,0.158046 1.027304,0.335747 1.461926,0.5333 l 0.711584,-1.5012 c -1.106312,-0.553159 -2.404015,-0.829923 -3.892268,-0.829923 z m 112.468589,0 c -0.88242,0 -1.66591,0.144852 -2.35077,0.434598 -0.67169,0.289753 -1.19832,0.704899 -1.58026,1.244886 -0.38194,0.526812 -0.57309,1.165449 -0.57309,1.916162 0,1.093145 0.30315,1.955785 0.90899,2.587955 0.619,0.63218 1.52742,1.16579 2.72593,1.60042 0.85607,0.30292 1.52109,0.59262 1.99523,0.86919 0.4873,0.26342 0.82977,0.55312 1.02732,0.8692 0.19756,0.31609 0.29663,0.70434 0.29663,1.16531 0,0.69803 -0.2703,1.25156 -0.81029,1.65984 -0.52681,0.40828 -1.31677,0.61237 -2.3704,0.61237 -0.75071,0 -1.48195,-0.0856 -2.19315,-0.25683 -0.69803,-0.17122 -1.2839,-0.36237 -1.75803,-0.57309 v 1.69912 c 0.44779,0.21072 1.00728,0.37549 1.67897,0.49402 0.67169,0.11854 1.40293,0.17777 2.19315,0.17777 1.54093,0 2.76595,-0.34945 3.67471,-1.04748 0.90875,-0.69803 1.3627,-1.67267 1.3627,-2.92385 0,-0.73755 -0.15131,-1.3498 -0.45423,-1.8371 -0.28975,-0.48731 -0.7243,-0.90194 -1.3038,-1.24437 -0.56632,-0.3556 -1.26419,-0.68513 -2.09393,-0.98805 -0.76388,-0.28975 -1.36966,-0.55953 -1.81746,-0.80977 -0.44779,-0.25023 -0.77085,-0.53347 -0.96841,-0.84956 -0.19756,-0.31609 -0.29611,-0.71133 -0.29611,-1.185458 0,-0.619013 0.224,-1.112797 0.67179,-1.481564 0.4478,-0.381946 1.11282,-0.573091 1.99523,-0.573091 0.61901,0 1.21134,0.07268 1.77767,0.217558 0.57949,0.144873 1.11311,0.322574 1.60042,0.5333 l 0.55294,-1.521354 c -0.52682,-0.237073 -1.11269,-0.427702 -1.75803,-0.572575 -0.64536,-0.144873 -1.35667,-0.217557 -2.13372,-0.217557 z m 7.68531,1.284159 -0.69143,2.252059 -1.52135,0.691433 v 0.82992 h 1.5012 v 6.16396 c 0,0.85608 0.14485,1.5211 0.4346,1.99523 0.28975,0.47413 0.66507,0.80962 1.12603,1.00718 0.47414,0.18438 0.98784,0.27698 1.54099,0.27698 0.31609,0 0.64563,-0.0333 0.98805,-0.0992 0.34244,-0.0527 0.60575,-0.12484 0.79014,-0.21704 v -1.32395 c -0.17122,0.0527 -0.39522,0.10546 -0.6718,0.15813 -0.27657,0.0395 -0.54636,0.0594 -0.80977,0.0594 -0.4873,0 -0.889,-0.15132 -1.20509,-0.45424 -0.30292,-0.31608 -0.45475,-0.79693 -0.45475,-1.44229 v -6.12417 h 3.06234 v -1.343586 h -3.06234 v -2.429826 z m 18.2144,0 -0.69143,2.252059 -1.52136,0.691433 v 0.82992 h 1.50172 v 6.16396 c 0,0.85608 0.14485,1.5211 0.4346,1.99523 0.28974,0.47413 0.66506,0.80962 1.12603,1.00718 0.47413,0.18438 0.98783,0.27698 1.54099,0.27698 0.31609,0 0.6451,-0.0333 0.98754,-0.0992 0.34242,-0.0527 0.60574,-0.12484 0.79013,-0.21704 v -1.32395 c -0.17122,0.0527 -0.3947,0.10546 -0.67128,0.15813 -0.27658,0.0395 -0.54688,0.0594 -0.81029,0.0594 -0.4873,0 -0.889,-0.15132 -1.20509,-0.45424 -0.30292,-0.31608 -0.45424,-0.79693 -0.45424,-1.44229 v -6.12417 h 3.06235 v -1.343586 h -3.06235 V 97.39058 Z M 36.829435,99.623002 c -0.935097,0 -1.758416,0.224 -2.469616,0.671788 -0.698031,0.4478 -1.244582,1.08643 -1.639694,1.91616 -0.381941,0.82974 -0.573091,1.82429 -0.573091,2.98329 0,1.17216 0.211066,2.1662 0.632519,2.98276 0.434623,0.80339 1.033941,1.40917 1.797823,1.81746 0.777054,0.40828 1.665555,0.61288 2.666504,0.61288 0.724372,0 1.350073,-0.0598 1.876888,-0.17828 0.526815,-0.10536 1.060433,-0.2766 1.600419,-0.51367 v -1.52083 c -0.553156,0.23707 -1.09324,0.42123 -1.620056,0.55293 -0.513647,0.11854 -1.106497,0.17777 -1.778186,0.17777 -1.053631,0 -1.876432,-0.3091 -2.4691,-0.92811 -0.579497,-0.63218 -0.882648,-1.54758 -0.908988,-2.74608 h 7.250203 v -1.04748 c 0,-0.96144 -0.1777,-1.7977 -0.5333,-2.50889 -0.342431,-0.72438 -0.842681,-1.28386 -1.501201,-1.67897 -0.645348,-0.395113 -1.422368,-0.592728 -2.331124,-0.592728 z m 28.981177,0 c -0.737542,0 -1.376177,0.21055 -1.916162,0.631998 -0.539986,0.42146 -0.981003,0.92223 -1.323433,1.50172 h -0.07906 L 62.294036,99.820406 H 60.8719 v 10.589014 h 1.738396 v -5.64978 c 0,-0.7112 0.138384,-1.33043 0.414961,-1.85725 0.289749,-0.53999 0.671533,-0.95514 1.145667,-1.24489 0.474134,-0.30292 0.981369,-0.45423 1.521354,-0.45423 0.184386,0 0.375019,0.0135 0.572575,0.0398 0.210726,0.0263 0.401877,0.0592 0.573092,0.0987 l 0.217557,-1.600422 c -0.171216,-0.03947 -0.375816,-0.06586 -0.612882,-0.07906 -0.223896,-0.02633 -0.434447,-0.03927 -0.632003,-0.03927 z m 18.78748,0 c -0.63218,0 -1.23098,0.138382 -1.7973,0.414958 -0.55316,0.26341 -0.99469,0.67158 -1.32395,1.22473 h -0.0987 l -0.25684,-1.442284 h -1.40249 v 10.589014 h 1.73839 v -5.49165 c 0,-1.23802 0.20408,-2.18679 0.61237,-2.84531 0.40828,-0.65852 1.14598,-0.98753 2.21278,-0.98753 1.44875,0 2.17299,0.83625 2.17299,2.50889 v 6.8156 h 1.71876 v -5.8477 c 0,-1.13266 0.21702,-1.99529 0.65164,-2.58796 0.4478,-0.59266 1.1855,-0.88883 2.21279,-0.88883 1.43557,0 2.15335,0.83625 2.15335,2.50889 v 6.8156 h 1.71876 v -6.89467 c 0,-1.36972 -0.29616,-2.35729 -0.88883,-2.96312 -0.59267,-0.619015 -1.48815,-0.928628 -2.68666,-0.928628 -0.68487,0 -1.33695,0.144852 -1.95595,0.434598 -0.60584,0.28975 -1.08669,0.73775 -1.44229,1.34359 h -0.0987 c -0.50048,-1.18533 -1.58065,-1.778188 -3.24012,-1.778188 z m 17.681608,0 c -0.9351,0 -1.75842,0.224 -2.469608,0.671788 -0.69804,0.4478 -1.24459,1.08643 -1.6397,1.91616 -0.38194,0.82974 -0.57309,1.82429 -0.57309,2.98329 0,1.17216 0.21107,2.16619 0.63252,2.98276 0.43462,0.80339 1.03342,1.40918 1.797308,1.81746 0.77705,0.40828 1.66607,0.61288 2.66702,0.61288 0.72437,0 1.35007,-0.0592 1.87688,-0.17777 0.52682,-0.10536 1.06044,-0.27659 1.60042,-0.51366 v -1.52135 c -0.55316,0.23706 -1.09324,0.42123 -1.62005,0.55293 -0.51365,0.11854 -1.1065,0.17777 -1.77819,0.17777 -1.05363,0 -1.87643,-0.3091 -2.4691,-0.92811 -0.579498,-0.63218 -0.882648,-1.54758 -0.908988,-2.74608 h 7.250208 v -1.04697 c 0,-0.96144 -0.1777,-1.79821 -0.5333,-2.5094 -0.34243,-0.72438 -0.84268,-1.28386 -1.5012,-1.67897 -0.64536,-0.395113 -1.42238,-0.592728 -2.33113,-0.592728 z m 72.22608,0 c -1.18533,0 -2.14652,0.243915 -2.88406,0.731218 -0.72437,0.48731 -1.08675,1.17871 -1.08675,2.07429 0,0.5795 0.13191,1.05337 0.39532,1.42214 0.26341,0.36877 0.63873,0.68485 1.12603,0.94826 0.48731,0.26341 1.07317,0.52673 1.75803,0.79013 0.69804,0.26342 1.23165,0.50086 1.60042,0.71159 0.38194,0.21072 0.64526,0.42127 0.79014,0.632 0.14487,0.21072 0.21755,0.44765 0.21755,0.71107 0,0.47413 -0.19761,0.85592 -0.59273,1.14566 -0.3951,0.27658 -1.03426,0.41497 -1.91667,0.41497 -0.61901,0 -1.23126,-0.0856 -1.8371,-0.25684 -0.59267,-0.18438 -1.0999,-0.382 -1.52136,-0.59273 v 1.58079 c 0.40828,0.21072 0.8762,0.37549 1.40302,0.49402 0.53999,0.11854 1.17862,0.17777 1.91616,0.17777 1.2907,0 2.3181,-0.26383 3.08198,-0.79065 0.76389,-0.52681 1.14567,-1.30383 1.14567,-2.33112 0,-0.56633 -0.12493,-1.03373 -0.37517,-1.4025 -0.25023,-0.38194 -0.61262,-0.70449 -1.08676,-0.9679 -0.47413,-0.26341 -1.04707,-0.52026 -1.71875,-0.7705 -0.6717,-0.2634 -1.21178,-0.4874 -1.62006,-0.67179 -0.39511,-0.19755 -0.67783,-0.39517 -0.84904,-0.59273 -0.17122,-0.21072 -0.25684,-0.46111 -0.25684,-0.75086 0,-0.39511 0.18417,-0.70421 0.55294,-0.9281 0.38194,-0.23707 0.92849,-0.35554 1.6397,-0.35554 0.51363,0 1.01389,0.0657 1.5012,0.19741 0.4873,0.1317 0.95522,0.28948 1.40301,0.47387 l 0.59273,-1.38286 c -0.48731,-0.22389 -1.01446,-0.395131 -1.58078,-0.513664 -0.55316,-0.131707 -1.15248,-0.197404 -1.79783,-0.197404 z m -101.859926,0.01964 c -0.684673,4.7e-5 -1.343057,0.09214 -1.975073,0.276469 -0.632179,0.171219 -1.17873,0.382289 -1.639694,0.632519 l 0.533301,1.3038 c 0.434622,-0.21073 0.902023,-0.39542 1.402499,-0.55346 0.500474,-0.17122 1.027109,-0.25683 1.580265,-0.25683 0.698029,0 1.23812,0.17123 1.62006,0.51366 0.38194,0.34243 0.57309,0.9552 0.57309,1.83762 v 0.632 l -1.797825,0.0594 c -1.725321,0.0527 -3.003107,0.36876 -3.832841,0.94826 -0.829734,0.56633 -1.244369,1.3762 -1.244369,2.42983 0,1.07997 0.316085,1.87691 0.948263,2.39055 0.632178,0.50048 1.429112,0.75086 2.390551,0.75086 0.895585,0 1.593454,-0.13838 2.093929,-0.41496 0.513642,-0.27658 1.000962,-0.70467 1.461922,-1.28416 h 0.07907 l 0.3359,1.5012 h 1.26452 v -7.21042 c 0,-1.23801 -0.30962,-2.14048 -0.92863,-2.70681 -0.61891,-0.56624 -1.574,-0.849475 -2.864421,-0.849555 z m 84.356606,0 c -0.68486,0 -1.34341,0.09209 -1.97559,0.276469 -0.63217,0.171219 -1.17873,0.382289 -1.63969,0.632519 l 0.5333,1.3038 c 0.43462,-0.21073 0.90254,-0.39542 1.40301,-0.55346 0.50048,-0.17122 1.02711,-0.25683 1.58027,-0.25683 0.69802,0 1.23811,0.17123 1.62005,0.51366 0.38194,0.34243 0.57258,0.9552 0.57258,1.83762 v 0.632 l -1.79731,0.0594 c -1.72532,0.0527 -3.00311,0.36876 -3.83284,0.94826 -0.82973,0.56633 -1.24437,1.3762 -1.24437,2.42983 0,1.07997 0.31609,1.87691 0.94827,2.39055 0.63218,0.50048 1.42859,0.75086 2.39003,0.75086 0.89559,0 1.59397,-0.13838 2.09445,-0.41496 0.51364,-0.27658 1.00096,-0.70467 1.46192,-1.28416 h 0.0791 l 0.33538,1.5012 h 1.26452 v -7.21042 c 0,-1.23801 -0.30962,-2.14048 -0.92863,-2.70681 -0.61901,-0.566321 -1.57372,-0.849555 -2.86442,-0.849555 z M 36.809282,101.04514 c 0.882415,0 1.528033,0.28323 1.936315,0.84956 0.408279,0.55315 0.61883,1.27792 0.632003,2.17351 h -5.392952 c 0.09219,-0.94828 0.374909,-1.68598 0.849044,-2.21279 0.487304,-0.53998 1.145855,-0.81028 1.97559,-0.81028 z m 65.450268,5.1e-4 c 0.88242,0 1.52803,0.28272 1.93631,0.84905 0.40826,0.55315 0.61881,1.27792 0.63201,2.17351 h -5.392958 c 0.0922,-0.94827 0.37492,-1.68598 0.849048,-2.21279 0.4873,-0.53998 1.14586,-0.80977 1.97559,-0.80977 z m -82.443546,3.15485 c 0.07632,1.1162 0.296869,2.11622 0.675411,2.98896 0.487304,1.09315 1.211555,1.93586 2.172993,2.52853 0.961439,0.59267 2.160075,0.88935 3.595647,0.88935 0.777053,0 1.442071,-0.0463 1.995227,-0.13849 0.566326,-0.0922 1.112877,-0.23705 1.639693,-0.4346 v -1.54099 c -0.526816,0.15804 -1.0669,0.28996 -1.620056,0.39532 -0.553156,0.10537 -1.139024,0.15762 -1.758032,0.15762 -1.619958,0 -2.838511,-0.50672 -3.655075,-1.52084 -0.667355,-0.85334 -1.040932,-1.9717 -1.153934,-3.32486 z m 54.904658,1.03301 v 0.94826 c 0,1.02729 -0.29668,1.79138 -0.88935,2.29185 -0.592666,0.48731 -1.336836,0.73071 -2.232423,0.73071 -0.566326,0 -1.033728,-0.13839 -1.402498,-0.41497 -0.355601,-0.27658 -0.533301,-0.71113 -0.533301,-1.30379 0,-0.67169 0.250383,-1.19186 0.750859,-1.56063 0.513645,-0.36879 1.42853,-0.57934 2.745569,-0.632 z m 84.356088,0 v 0.94826 c 0,1.02729 -0.29617,1.79138 -0.88883,2.29185 -0.59267,0.48731 -1.33684,0.73071 -2.23242,0.73071 -0.56633,0 -1.03373,-0.13839 -1.4025,-0.41497 -0.3556,-0.27658 -0.53382,-0.71113 -0.53382,-1.30379 0,-0.67169 0.25039,-1.19186 0.75086,-1.56063 0.51364,-0.36879 1.42904,-0.57934 2.74608,-0.632 z" />
    <path
       id="path3"
       d="m 465.43813,700.49021 c 4.70796,10.09206 5.04603,17.89901 0.95787,21.98717 -1.89696,1.89695 -4.58275,2.83604 -7.93216,2.83604 -3.88156,0 -8.63961,-1.27089 -14.05501,-3.79391 -5.00221,-2.3352 -10.31119,-5.60948 -15.65146,-9.61626 -5.34028,4.00678 -10.64926,7.2748 -15.65147,9.61626 -5.4154,2.52302 -10.17971,3.79391 -14.05501,3.79391 -3.34941,0 -6.0352,-0.94535 -7.93216,-2.83604 -4.09442,-4.09443 -3.75009,-11.89511 0.95787,-21.98717 2.3352,-5.00221 5.60949,-10.31118 9.61626,-15.65146 -4.00677,-5.34028 -7.2748,-10.64925 -9.61626,-15.65147 -4.70796,-10.09206 -5.04603,-17.89901 -0.95787,-21.98716 4.08817,-4.08817 11.89511,-3.7501 21.98717,0.95787 5.00221,2.33519 10.31119,5.60948 15.65147,9.61625 5.34027,-4.00677 10.64925,-7.2748 15.65146,-9.61625 10.09206,-4.70797 17.89901,-5.04604 21.98717,-0.95787 1.89695,1.89695 2.8423,4.58274 2.8423,7.93841 0,3.87531 -1.2709,8.63335 -3.81269,14.04875 -2.3352,5.00222 -5.60949,10.31119 -9.61626,15.65147 4.0193,5.34028 7.29358,10.64925 9.62878,15.65146 z m 11.02488,-70.31889 h -95.42382 c -3.83774,0.006 -6.94298,3.11152 -6.94925,6.94925 v 95.43009 c 0.006,3.83774 3.11151,6.94298 6.94925,6.94925 h 95.43009 c 3.83774,-0.006 6.94298,-3.11151 6.94925,-6.94925 v -95.42382 c -0.006,-3.83774 -3.11777,-6.94925 -6.95552,-6.95552"
       style="fill:#100f0d;fill-opacity:1;fill-rule:nonzero;stroke:none;stroke-width:0.00626057" />
    <path
       id="path4"
       d="m 462.29531,667.71605 c -2.41658,5.02725 -5.31523,9.81033 -8.66464,14.27413 -3.24299,-4.06938 -6.71135,-7.94468 -10.39257,-11.62591 -3.67497,-3.68122 -7.55653,-7.14958 -11.62591,-10.39256 4.4638,-3.34315 9.24688,-6.24807 14.27414,-8.66465 4.96464,-2.31642 9.26566,-3.48715 12.58377,-3.48715 2.38528,0 4.26346,0.61354 5.49053,1.84061 2.92369,2.92996 2.32268,9.51609 -1.66532,18.05553"
       style="fill:#100f0d;fill-opacity:1;fill-rule:nonzero;stroke:none;stroke-width:0.00626057" />
    <path
       id="path5"
       d="m 425.90254,709.71205 c -4.4638,3.34315 -9.24689,6.24806 -14.27413,8.66465 -8.5457,3.99425 -15.1381,4.589 -18.07431,1.64653 -2.94247,-2.94248 -2.34146,-9.52861 1.64653,-18.0743 2.41659,-5.02725 5.31524,-9.81034 8.66465,-14.27414 3.24298,4.06938 6.71135,7.94468 10.39257,11.62591 3.68749,3.68748 7.57531,7.16211 11.64469,10.41135"
       style="fill:#100f0d;fill-opacity:1;fill-rule:nonzero;stroke:none;stroke-width:0.00626057" />
    <path
       id="path6"
       d="m 463.94185,720.02949 c -2.94248,2.94248 -9.52861,2.34146 -18.07431,-1.64654 -5.02725,-2.41658 -9.81033,-5.31523 -14.27413,-8.66464 4.06938,-3.24298 7.94468,-6.71135 11.62591,-10.39257 3.68122,-3.67497 7.14958,-7.55653 10.39256,-11.62591 3.34316,4.4638 6.24807,9.24689 8.66465,14.27414 4.00678,8.52691 4.60779,15.11304 1.66532,18.05552"
       style="fill:#100f0d;fill-opacity:1;fill-rule:nonzero;stroke:none;stroke-width:0.00626057" />
    <path
       id="path7"
       d="m 428.7511,693.28427 c -4.66413,0 -8.44552,-3.78139 -8.44552,-8.44552 0,-4.66414 3.78139,-8.44553 8.44552,-8.44553 4.66414,0 8.44553,3.78139 8.44553,8.44553 -0.006,4.65787 -3.78765,8.43926 -8.44553,8.44552 z m 12.02032,-20.46584 c -3.78764,-3.80018 -7.80694,-7.37497 -12.02032,-10.69308 -8.42674,6.66126 -16.05213,14.28039 -22.7134,22.7134 3.31812,4.21337 6.89291,8.22641 10.69308,12.01406 3.78766,3.80017 7.80695,7.37497 12.02032,10.69934 4.21964,-3.31811 8.23268,-6.89291 12.02032,-10.69934 3.80018,-3.78765 7.37497,-7.80069 10.69309,-12.01406 -3.31812,-4.21338 -6.89291,-8.23267 -10.69309,-12.02032"
       style="fill:#100f0d;fill-opacity:1;fill-rule:nonzero;stroke:none;stroke-width:0.00626057" />
    <path
       id="path8"
       d="m 425.90254,659.96544 c -8.13876,6.50475 -15.52625,13.89224 -22.031,22.031 -3.34315,-4.46379 -6.24806,-9.24688 -8.66464,-14.27413 -3.99426,-8.5457 -4.58901,-15.13809 -1.64654,-18.07431 1.23334,-1.23333 3.11777,-1.84061 5.49053,-1.84061 3.31185,0 7.61914,1.17699 12.58378,3.48715 5.03351,2.41658 9.81033,5.32149 14.26787,8.6709"
       style="fill:#100f0d;fill-opacity:1;fill-rule:nonzero;stroke:none;stroke-width:0.00626057" />
    <path
       id="path9"
       d="m 425.22577,681.31466 c 1.94642,-1.94641 5.10175,-1.94641 7.04754,0 1.94642,1.94579 1.94642,5.10113 0,7.04755 -1.94579,1.94578 -5.10112,1.94578 -7.04754,0 -1.94579,-1.94642 -1.94579,-5.10176 0,-7.04755"
       style="fill:#100f0d;fill-opacity:1;fill-rule:nonzero;stroke:none;stroke-width:0.00626057" />
    <path
       id="path10"
       d="m 396.64057,606.90073 v 19.80849 h -3.4621 v -19.80849 c 0,-0.95786 0.77631,-1.73418 1.73418,-1.73418 0.95787,0 1.72792,0.77632 1.72792,1.73418"
       style="fill:#100f0d;fill-opacity:1;fill-rule:nonzero;stroke:none;stroke-width:0.00626057" />
    <path
       id="path11"
       d="m 419.20371,606.90073 v 19.80849 h -3.4621 v -19.80849 c 0,-0.95786 0.77631,-1.73418 1.73418,-1.73418 0.95787,0 1.72792,0.77632 1.72792,1.73418"
       style="fill:#100f0d;fill-opacity:1;fill-rule:nonzero;stroke:none;stroke-width:0.00626057" />
    <path
       id="path12"
       d="m 441.7606,606.90073 v 19.80849 h -3.4621 v -19.80849 c 0,-0.95786 0.77631,-1.73418 1.73418,-1.73418 0.95787,0 1.72792,0.77632 1.72792,1.73418"
       style="fill:#100f0d;fill-opacity:1;fill-rule:nonzero;stroke:none;stroke-width:0.00626057" />
    <path
       id="path13"
       d="m 464.32374,606.90073 v 19.80849 h -3.4621 v -19.80849 c 0,-0.95786 0.77631,-1.73418 1.73418,-1.73418 0.95787,0 1.72792,0.77632 1.72792,1.73418"
       style="fill:#100f0d;fill-opacity:1;fill-rule:nonzero;stroke:none;stroke-width:0.00626057" />
    <path
       id="path14"
       d="m 396.64057,742.96201 v 19.80849 c 0,0.95787 -0.77631,1.73418 -1.73418,1.73418 -0.95787,0 -1.73419,-0.77631 -1.73419,-1.73418 v -19.80849 h 3.46837"
       style="fill:#100f0d;fill-opacity:1;fill-rule:nonzero;stroke:none;stroke-width:0.00626057" />
    <path
       id="path15"
       d="m 419.20371,742.96201 v 19.80849 c 0,0.95787 -0.77631,1.73418 -1.73418,1.73418 -0.95787,0 -1.73418,-0.77631 -1.73418,-1.73418 v -19.80849 h 3.46836"
       style="fill:#100f0d;fill-opacity:1;fill-rule:nonzero;stroke:none;stroke-width:0.00626057" />
    <path
       id="path16"
       d="m 441.7606,742.96201 v 19.80849 c 0,0.95787 -0.77631,1.73418 -1.73418,1.73418 -0.95787,0 -1.73419,-0.77631 -1.73419,-1.73418 v -19.80849 h 3.46837"
       style="fill:#100f0d;fill-opacity:1;fill-rule:nonzero;stroke:none;stroke-width:0.00626057" />
    <path
       id="path17"
       d="m 508.4233,651.00029 c 0,0.95787 -0.77631,1.73418 -1.73418,1.73418 h -19.80849 v -3.4621 h 19.80849 c 0.9516,-0.006 1.73418,0.77005 1.73418,1.72792"
       style="fill:#100f0d;fill-opacity:1;fill-rule:nonzero;stroke:none;stroke-width:0.00626057" />
    <path
       id="path18"
       d="m 508.4233,673.55717 c 0,0.95787 -0.77631,1.73418 -1.73418,1.73418 h -19.80849 v -3.4621 h 19.80849 c 0.9516,0 1.73418,0.77005 1.73418,1.72792"
       style="fill:#100f0d;fill-opacity:1;fill-rule:nonzero;stroke:none;stroke-width:0.00626057" />
    <path
       id="path19"
       d="m 508.4233,696.12032 c 0,0.95787 -0.77631,1.73418 -1.73418,1.73418 h -19.80849 v -3.4621 h 19.80849 c 0.9516,-0.006 1.73418,0.77005 1.73418,1.72792"
       style="fill:#100f0d;fill-opacity:1;fill-rule:nonzero;stroke:none;stroke-width:0.00626057" />
    <path
       id="path20"
       d="m 508.4233,718.6772 c 0,0.95787 -0.77631,1.73418 -1.73418,1.73418 h -19.80849 v -3.4621 h 19.80849 c 0.9516,0 1.73418,0.77005 1.73418,1.72792"
       style="fill:#100f0d;fill-opacity:1;fill-rule:nonzero;stroke:none;stroke-width:0.00626057" />
    <path
       id="path21"
       d="m 370.62158,649.26611 v 3.4621 h -19.80849 c -0.95787,0 -1.73418,-0.77631 -1.73418,-1.73418 0,-0.95787 0.77631,-1.73418 1.73418,-1.73418 l 19.80849,0.006 v 0"
       style="fill:#100f0d;fill-opacity:1;fill-rule:nonzero;stroke:none;stroke-width:0.00626057" />
    <path
       id="path22"
       d="m 370.62158,671.82925 v 3.4621 h -19.80849 c -0.95787,0 -1.73418,-0.77631 -1.73418,-1.73418 0,-0.95787 0.77631,-1.73418 1.73418,-1.73418 l 19.80849,0.006 v 0"
       style="fill:#100f0d;fill-opacity:1;fill-rule:nonzero;stroke:none;stroke-width:0.00626057" />
    <path
       id="path23"
       d="m 370.62158,694.38614 v 3.4621 h -19.80849 c -0.95787,0 -1.73418,-0.77631 -1.73418,-1.73418 0,-0.95787 0.77631,-1.73418 1.73418,-1.73418 l 19.80849,0.006 v 0"
       style="fill:#100f0d;fill-opacity:1;fill-rule:nonzero;stroke:none;stroke-width:0.00626057" />
    <path
       id="path24"
       d="m 370.62158,716.94928 v 3.4621 h -19.80849 c -0.95787,0 -1.73418,-0.77631 -1.73418,-1.73418 0,-0.95787 0.77631,-1.73418 1.73418,-1.73418 l 19.80849,0.006 v 0"
       style="fill:#100f0d;fill-opacity:1;fill-rule:nonzero;stroke:none;stroke-width:0.00626057" />
    <g
       id="g24"
       transform="matrix(0.00566248,0,0,0.00566248,105.83174,88.331851)"
       style="fill:#1bb6c4;fill-opacity:1">
      <path
         id="path3-6"
         d="m 3363.3332,2915.3334 c 100.2667,214.9333 107.4667,381.2 20.4,468.2666 -40.4,40.4 -97.5999,60.4 -168.9333,60.4 -82.6666,0 -184,-27.0666 -299.3333,-80.8 -106.5333,-49.7333 -219.6,-119.4666 -333.3333,-204.7999 -113.7334,85.3333 -226.8,154.9333 -333.3334,204.7999 -115.3333,53.7334 -216.8,80.8 -299.3333,80.8 -71.3333,0 -128.5333,-20.1333 -168.9333,-60.4 -87.2,-87.2 -79.8667,-253.3333 20.4,-468.2666 49.7333,-106.5333 119.4667,-219.6 204.8,-333.3333 -85.3333,-113.7334 -154.9333,-226.8 -204.8,-333.3334 -100.2667,-214.9333 -107.4667,-381.2 -20.4,-468.2666 87.0667,-87.0667 253.3333,-79.8667 468.2666,20.4 106.5334,49.7333 219.6,119.4666 333.3334,204.8 113.7333,-85.3334 226.8,-154.9334 333.3333,-204.8 214.9333,-100.2667 381.2,-107.4667 468.2666,-20.4 40.4,40.4 60.5334,97.6 60.5334,169.0666 0,82.5334 -27.0667,183.8667 -81.2,299.2 -49.7333,106.5334 -119.4667,219.6 -204.8,333.3334 85.6,113.7333 155.3333,226.8 205.0666,333.3333 z m 234.8,-1497.6 H 1565.8666 c -81.7333,0.1334 -147.8666,66.2667 -148,148 v 2032.4 c 0.1334,81.7333 66.2667,147.8666 148,148 h 2032.4 c 81.7333,-0.1334 147.8666,-66.2667 148,-148 V 1565.8668 c -0.1334,-81.7334 -66.4,-148 -148.1334,-148.1334"
         style="fill:#1bb6c4;fill-opacity:1;fill-rule:nonzero;stroke:none;stroke-width:0.133333" />
      <path
         id="path4-1"
         d="m 3296.3999,2217.3334 c -51.4666,107.0667 -113.2,208.9333 -184.5333,304 -69.0667,-86.6667 -142.9333,-169.2 -221.3333,-247.6 -78.2667,-78.4 -160.9334,-152.2667 -247.6,-221.3333 95.0666,-71.2 196.9333,-133.0667 304,-184.5334 105.7333,-49.3333 197.3333,-74.2666 268,-74.2666 50.8,0 90.8,13.0667 116.9333,39.2 62.2666,62.4 49.4666,202.6666 -35.4667,384.5333"
         style="fill:#1bb6c4;fill-opacity:1;fill-rule:nonzero;stroke:none;stroke-width:0.133333" />
      <path
         id="path5-0"
         d="m 2521.3333,3111.7334 c -95.0667,71.2 -196.9334,133.0666 -304,184.5333 -182,85.0667 -322.4,97.7333 -384.9333,35.0667 -62.6667,-62.6667 -49.8667,-202.9333 35.0666,-384.9333 51.4667,-107.0667 113.2,-208.9334 184.5333,-304 69.0667,86.6666 142.9334,169.2 221.3334,247.6 78.5333,78.5333 161.3333,152.5333 248,221.7333"
         style="fill:#1bb6c4;fill-opacity:1;fill-rule:nonzero;stroke:none;stroke-width:0.133333" />
      <path
         id="path6-6"
         d="m 3331.4666,3331.4667 c -62.6667,62.6667 -202.9333,49.8667 -384.9333,-35.0667 -107.0667,-51.4666 -208.9334,-113.2 -304,-184.5333 86.6666,-69.0666 169.2,-142.9333 247.6,-221.3333 78.4,-78.2667 152.2666,-160.9333 221.3333,-247.6 71.2,95.0667 133.0667,196.9333 184.5333,304 85.3333,181.6 98.1333,321.8666 35.4667,384.5333"
         style="fill:#1bb6c4;fill-opacity:1;fill-rule:nonzero;stroke:none;stroke-width:0.133333" />
      <path
         id="path7-3"
         d="m 2581.9999,2761.8667 c -99.3333,0 -179.8666,-80.5333 -179.8666,-179.8666 0,-99.3334 80.5333,-179.8667 179.8666,-179.8667 99.3334,0 179.8667,80.5333 179.8667,179.8667 -0.1333,99.2 -80.6667,179.7333 -179.8667,179.8666 z m 256,-435.8666 c -80.6666,-80.9334 -166.2666,-157.0667 -256,-227.7334 -179.4666,141.8667 -341.8666,304.1334 -483.7333,483.7334 70.6667,89.7333 146.8,175.2 227.7333,255.8666 80.6667,80.9334 166.2667,157.0667 256,227.8667 89.8667,-70.6667 175.3334,-146.8 256,-227.8667 80.9334,-80.6666 157.0667,-166.1333 227.7334,-255.8666 -70.6667,-89.7334 -146.8,-175.3334 -227.7334,-256"
         style="fill:#1bb6c4;fill-opacity:1;fill-rule:nonzero;stroke:none;stroke-width:0.133333" />
      <path
         id="path8-2"
         d="m 2521.3333,2052.2667 c -173.3334,138.5334 -330.6667,295.8667 -469.2,469.2 -71.2,-95.0666 -133.0667,-196.9333 -184.5333,-304 -85.0667,-182 -97.7334,-322.4 -35.0667,-384.9333 26.2667,-26.2666 66.4,-39.2 116.9333,-39.2 70.5333,0 162.2667,25.0667 268,74.2667 107.2,51.4666 208.9333,113.3333 303.8667,184.6666"
         style="fill:#1bb6c4;fill-opacity:1;fill-rule:nonzero;stroke:none;stroke-width:0.133333" />
      <path
         id="path9-0"
         d="m 2506.9199,2506.9467 c 41.4534,-41.4533 108.6534,-41.4533 150.0934,0 41.4533,41.44 41.4533,108.64 0,150.0934 -41.44,41.44 -108.64,41.44 -150.0934,0 -41.44,-41.4534 -41.44,-108.6534 0,-150.0934"
         style="fill:#1bb6c4;fill-opacity:1;fill-rule:nonzero;stroke:none;stroke-width:0.133333" />
      <path
         id="path10-6"
         d="M 1898.1333,922.13344 V 1344.0001 H 1824.4 V 922.13344 c 0,-20.4 16.5333,-36.93333 36.9333,-36.93333 20.4,0 36.8,16.53333 36.8,36.93333"
         style="fill:#1bb6c4;fill-opacity:1;fill-rule:nonzero;stroke:none;stroke-width:0.133333" />
      <path
         id="path11-1"
         d="m 2378.6666,922.13344 v 421.86666 h -73.7333 V 922.13344 c 0,-20.4 16.5333,-36.93333 36.9333,-36.93333 20.4,0 36.8,16.53333 36.8,36.93333"
         style="fill:#1bb6c4;fill-opacity:1;fill-rule:nonzero;stroke:none;stroke-width:0.133333" />
      <path
         id="path12-5"
         d="m 2859.0666,922.13344 v 421.86666 h -73.7333 V 922.13344 c 0,-20.4 16.5333,-36.93333 36.9333,-36.93333 20.4,0 36.8,16.53333 36.8,36.93333"
         style="fill:#1bb6c4;fill-opacity:1;fill-rule:nonzero;stroke:none;stroke-width:0.133333" />
      <path
         id="path13-5"
         d="m 3339.5999,922.13344 v 421.86666 h -73.7333 V 922.13344 c 0,-20.4 16.5333,-36.93333 36.9333,-36.93333 20.4,0 36.8,16.53333 36.8,36.93333"
         style="fill:#1bb6c4;fill-opacity:1;fill-rule:nonzero;stroke:none;stroke-width:0.133333" />
      <path
         id="path14-4"
         d="m 1898.1333,3819.8667 v 421.8667 c 0,20.4 -16.5333,36.9333 -36.9333,36.9333 -20.4,0 -36.9334,-16.5333 -36.9334,-36.9333 v -421.8667 h 73.8667"
         style="fill:#1bb6c4;fill-opacity:1;fill-rule:nonzero;stroke:none;stroke-width:0.133333" />
      <path
         id="path15-7"
         d="m 2378.6666,3819.8667 v 421.8667 c 0,20.4 -16.5333,36.9333 -36.9333,36.9333 -20.4,0 -36.9334,-16.5333 -36.9334,-36.9333 v -421.8667 h 73.8667"
         style="fill:#1bb6c4;fill-opacity:1;fill-rule:nonzero;stroke:none;stroke-width:0.133333" />
      <path
         id="path16-6"
         d="m 2859.0666,3819.8667 v 421.8667 c 0,20.4 -16.5333,36.9333 -36.9333,36.9333 -20.4,0 -36.9334,-16.5333 -36.9334,-36.9333 v -421.8667 h 73.8667"
         style="fill:#1bb6c4;fill-opacity:1;fill-rule:nonzero;stroke:none;stroke-width:0.133333" />
      <path
         id="path16-4"
         d="m 3299.1999,3819.8667 v 421.8667 c 0,20.4 -16.5333,36.9333 -36.9333,36.9333 -20.4,0 -36.9334,-16.5333 -36.9334,-36.9333 v -421.8667 h 73.8667"
         style="fill:#1bb6c4;fill-opacity:1;fill-rule:nonzero;stroke:none;stroke-width:0.133333" />
      <path
         id="path17-5"
         d="m 4278.7999,1861.3334 c 0,20.4 -16.5333,36.9333 -36.9333,36.9333 h -421.8667 v -73.7333 h 421.8667 c 20.2666,-0.1333 36.9333,16.4 36.9333,36.8"
         style="fill:#1bb6c4;fill-opacity:1;fill-rule:nonzero;stroke:none;stroke-width:0.133333" />
      <path
         id="path18-6"
         d="m 4278.7999,2341.7334 c 0,20.4 -16.5333,36.9333 -36.9333,36.9333 h -421.8667 v -73.7333 h 421.8667 c 20.2666,0 36.9333,16.4 36.9333,36.8"
         style="fill:#1bb6c4;fill-opacity:1;fill-rule:nonzero;stroke:none;stroke-width:0.133333" />
      <path
         id="path19-9"
         d="m 4278.7999,2822.2667 c 0,20.4 -16.5333,36.9334 -36.9333,36.9334 h -421.8667 v -73.7334 h 421.8667 c 20.2666,-0.1333 36.9333,16.4 36.9333,36.8"
         style="fill:#1bb6c4;fill-opacity:1;fill-rule:nonzero;stroke:none;stroke-width:0.133333" />
      <path
         id="path20-3"
         d="m 4278.7999,3302.6667 c 0,20.4 -16.5333,36.9333 -36.9333,36.9333 h -421.8667 v -73.7333 h 421.8667 c 20.2666,0 36.9333,16.4 36.9333,36.8"
         style="fill:#1bb6c4;fill-opacity:1;fill-rule:nonzero;stroke:none;stroke-width:0.133333" />
      <path
         id="path21-7"
         d="m 1344,1824.4001 v 73.7333 H 922.13331 c -20.4,0 -36.93333,-16.5333 -36.93333,-36.9333 0,-20.4 16.53333,-36.9333 36.93333,-36.9333 L 1344,1824.4001 v 0"
         style="fill:#1bb6c4;fill-opacity:1;fill-rule:nonzero;stroke:none;stroke-width:0.133333" />
      <path
         id="path22-4"
         d="m 1344,2304.9334 v 73.7333 H 922.13331 c -20.4,0 -36.93333,-16.5333 -36.93333,-36.9333 0,-20.4 16.53333,-36.9333 36.93333,-36.9333 L 1344,2304.9334 v 0"
         style="fill:#1bb6c4;fill-opacity:1;fill-rule:nonzero;stroke:none;stroke-width:0.133333" />
      <path
         id="path23-5"
         d="m 1344,2785.3334 v 73.7333 H 922.13331 c -20.4,0 -36.93333,-16.5333 -36.93333,-36.9333 0,-20.4 16.53333,-36.9333 36.93333,-36.9333 L 1344,2785.3334 v 0"
         style="fill:#1bb6c4;fill-opacity:1;fill-rule:nonzero;stroke:none;stroke-width:0.133333" />
      <path
         id="path24-2"
         d="M 1344,3265.8667 V 3339.6 H 922.13331 c -20.4,0 -36.93333,-16.5333 -36.93333,-36.9333 0,-20.4 16.53333,-36.9333 36.93333,-36.9333 L 1344,3265.8667 v 0"
         style="fill:#1bb6c4;fill-opacity:1;fill-rule:nonzero;stroke:none;stroke-width:0.133333" />
    </g>
  </g>
</svg>
